<svg width="20" height="20" viewBox="0 0 20 20" fill="none" xmlns="http://www.w3.org/2000/svg">
<path d="M5.66542 8.23657L7.19751 6.951L8.48308 8.48309L11.5473 5.91194L12.8328 7.44402L8.23657 11.3007L5.66542 8.23657Z" fill="black"/>
<path fill-rule="evenodd" clip-rule="evenodd" d="M14.2071 2.89344C17.0923 5.77862 17.3131 10.3193 14.8693 13.4578C14.8846 13.4713 14.8996 13.4854 14.9143 13.5L19.1569 17.7427C19.5474 18.1332 19.5474 18.7664 19.1569 19.1569C18.7664 19.5474 18.1332 19.5474 17.7427 19.1569L13.5 14.9143C13.4854 14.8996 13.4713 14.8846 13.4578 14.8693C10.3193 17.3131 5.77862 17.0923 2.89344 14.2071C-0.230756 11.083 -0.230756 6.01763 2.89344 2.89344C6.01763 -0.230756 11.083 -0.230756 14.2071 2.89344ZM12.7929 12.7929C15.1361 10.4498 15.1361 6.6508 12.7929 4.30765C10.4498 1.96451 6.6508 1.96451 4.30765 4.30765C1.96451 6.6508 1.96451 10.4498 4.30765 12.7929C6.6508 15.1361 10.4498 15.1361 12.7929 12.7929Z" fill="black"/>
</svg>
